<svg class="icon" viewBox="0 0 1024 1024" version="1.1" xmlns="http://www.w3.org/2000/svg"><path d="M918.4768 439.9616l-72.4992-72.4992V264.96c0-49.7152-40.448-90.112-90.1632-90.112H653.312l-72.4992-72.4992c-17.0496-17.0496-39.68-26.4192-63.744-26.4192s-46.6944 9.3696-63.744 26.4192L380.8768 174.7968H278.3232c-49.7152 0-90.1632 40.448-90.1632 90.112v102.5024L115.712 439.9616a89.45664 89.45664 0 0 0-26.4192 63.744c0 24.064 9.3696 46.6944 26.4192 63.744l72.4992 72.4992v102.5024c0 49.7152 40.448 90.1632 90.112 90.1632h102.5536l72.4992 72.4992c17.5616 17.5616 40.6528 26.368 63.744 26.368 23.0912 0 46.1824-8.8064 63.744-26.368l72.4992-72.4992h102.5024c49.7152 0 90.1632-40.448 90.1632-90.1632v-102.5024l72.4992-72.4992c17.0496-17.0496 26.4192-39.68 26.4192-63.744-0.0512-24.064-9.472-46.7456-26.4704-63.744z" fill="#FF0000"></path><path d="M511.6416 649.728c-7.0656 0-13.9776-2.4576-19.5072-7.0144l-130.56-107.3664a30.72 30.72 0 0 1-4.1984-43.264 30.72 30.72 0 0 1 43.264-4.1984l104.9088 86.272 121.9072-174.336a30.72 30.72 0 0 1 42.8032-7.5776 30.72 30.72 0 0 1 7.5776 42.8032l-140.9536 201.5744a30.8736 30.8736 0 0 1-20.992 12.8512c-1.4336 0.1536-2.8672 0.256-4.2496 0.256z" fill="#FFFFFF"></path></svg>